<svg xmlns="http://www.w3.org/2000/svg" viewBox="0 0 95.92 104.65"><defs><style>.cls-1{fill:#fff;}</style></defs><title>Asset 1</title><g id="Layer_2" data-name="Layer 2"><g id="Cards"><polygon class="cls-1" points="46.16 0 0 104.65 63.73 41.44 46.16 0"/><path class="cls-1" d="M71.83,101.16c-.85,0-1.5-.58-1.5-1.74s.65-1.74,1.5-1.74a1.34,1.34,0,0,1,1.12.5l-.34.32a.9.9,0,0,0-.78-.38.92.92,0,0,0-.78.38,1.49,1.49,0,0,0-.23.92,1.46,1.46,0,0,0,.23.91.93.93,0,0,0,.78.39.94.94,0,0,0,.78-.39l.34.32A1.35,1.35,0,0,1,71.83,101.16Z"/><path class="cls-1" d="M75.8,98.37a.71.71,0,0,0-.59-.25.82.82,0,0,0-.81.91v2.09h-.5v-3.4h.5v.41a1.14,1.14,0,0,1,.95-.45,1.06,1.06,0,0,1,.82.31Z"/><path class="cls-1" d="M76.88,99.55c0,.74.36,1.17,1,1.17a1.11,1.11,0,0,0,.89-.38l.33.29a1.53,1.53,0,0,1-1.24.53c-.9,0-1.48-.54-1.48-1.74s.53-1.74,1.39-1.74,1.4.63,1.4,1.64v.23Zm1.7-.94a.86.86,0,0,0-.8-.51.84.84,0,0,0-.79.51,1.42,1.42,0,0,0-.11.56h1.8A1.44,1.44,0,0,0,78.58,98.61Z"/><path class="cls-1" d="M82.16,101.12v-.33a1.17,1.17,0,0,1-1,.37,1.21,1.21,0,0,1-1-.31,1,1,0,0,1-.26-.69c0-.6.42-1,1.18-1h1v-.32c0-.5-.25-.75-.87-.75a.91.91,0,0,0-.86.39l-.33-.31a1.31,1.31,0,0,1,1.2-.5c.91,0,1.36.39,1.36,1.13v2.31Zm0-1.57h-1c-.51,0-.76.2-.76.6s.24.58.78.58a1,1,0,0,0,.76-.23.77.77,0,0,0,.17-.59Z"/><path class="cls-1" d="M84.82,101.12a.83.83,0,0,1-.87-.91V98.12h-.43v-.38H84V96.67h.5v1.07h.72v.38h-.72v2.07c0,.31.14.5.46.5h.26v.43Z"/><path class="cls-1" d="M86.14,96.75v-.56h.55v.56Zm0,4.37v-3.4h.5v3.4Z"/><path class="cls-1" d="M89.05,101.12h-.44l-1.25-3.4h.54l.93,2.73.93-2.73h.54Z"/><path class="cls-1" d="M91.24,99.55c0,.74.35,1.17,1,1.17a1.1,1.1,0,0,0,.89-.38l.34.29a1.53,1.53,0,0,1-1.24.53c-.9,0-1.49-.54-1.49-1.74s.53-1.74,1.4-1.74,1.39.63,1.39,1.64v.23Zm1.69-.94a.84.84,0,0,0-.79-.51.85.85,0,0,0-.8.51,1.44,1.44,0,0,0-.1.56H93A1.42,1.42,0,0,0,92.93,98.61Z"/><path class="cls-1" d="M47.71,93,47,89.7H43.78L43.11,93H41.33l3.28-14.08h1.64L49.51,93ZM45.42,81.69l-1.33,6.48h2.63Z"/><path class="cls-1" d="M58.22,92a3.14,3.14,0,0,1-2.41,1H52.54V78.94h3.27a3.11,3.11,0,0,1,2.41,1c1,1,1,2.59,1,6S59.19,91,58.22,92ZM56.93,81a1.41,1.41,0,0,0-1.18-.54H54.24v11h1.51A1.41,1.41,0,0,0,56.93,91c.52-.67.58-1.76.58-5S57.45,81.67,56.93,81Z"/><path class="cls-1" d="M75.28,92.25a3.31,3.31,0,0,1-2.36.93,3.22,3.22,0,0,1-2.33-.93,3.39,3.39,0,0,1-.91-2.44V78.94h1.7v11a1.57,1.57,0,0,0,1.54,1.75,1.59,1.59,0,0,0,1.57-1.75v-11h1.69V89.81A3.38,3.38,0,0,1,75.28,92.25Z"/><path class="cls-1" d="M85.22,92.31a3.5,3.5,0,0,1-2.49.85,3.37,3.37,0,0,1-2.47-.85c-.65-.65-.87-1.47-.87-3h1.7a2.44,2.44,0,0,0,.48,1.84,1.51,1.51,0,0,0,1.16.43,1.54,1.54,0,0,0,1.21-.45,2.62,2.62,0,0,0,.45-1.88c0-1.62-.23-2.11-1.38-2.59L81.41,86c-1.45-.6-1.92-1.38-1.92-3.52a3.8,3.8,0,0,1,1.07-2.89,3.19,3.19,0,0,1,2.23-.81,3.28,3.28,0,0,1,2.34.81,3.71,3.71,0,0,1,.93,2.89H84.35a2.51,2.51,0,0,0-.43-1.7,1.38,1.38,0,0,0-1.15-.48,1.43,1.43,0,0,0-1.09.44,2.5,2.5,0,0,0-.49,1.68c0,1.38.22,1.8,1.34,2.27l1.59.66c1.6.65,2,1.64,2,3.85C86.09,90.71,85.9,91.64,85.22,92.31Z"/><path class="cls-1" d="M93.56,80.46V93h-1.7V80.46H89.49V78.94h6.43v1.52Z"/><polygon class="cls-1" points="65.21 78.94 63.51 78.94 63.51 97.43 65.21 95.75 65.21 78.94"/></g></g></svg>